# xmcd CD database file
#
# Track frame offsets:
#	150
#	17617
#	37725
#	60695
#	78045
#	104120
#	125600
#	145660
#	169972
#	185647
#
# Disc length: 2761 seconds
#
# Revision: 1
# Processed by: cddbd v1.5.1PL0 Copyright (c) Steve Scherf et al.
# Submitted via: CDex 1.51
#
DISCID=810ac70a
DTITLE=船越由佳 - Morning Bird
DYEAR=2000
DGENRE=JPop
TTITLE0=Morning Bird
TTITLE1=Flowers
TTITLE2=心だけ ひとりぼっち
TTITLE3=風鈴
TTITLE4=Someday Somewhere　〜太陽の道しるべ〜
TTITLE5=Bloody Moon
TTITLE6=情熱の呪文
TTITLE7=陽炎みたいな季節
TTITLE8=afternoon bath time
TTITLE9=エレベーター・シティー
EXTD=YEAR: 2000
EXTT0=
EXTT1=
EXTT2=
EXTT3=
EXTT4=
EXTT5=
EXTT6=
EXTT7=
EXTT8=
EXTT9=
PLAYORDER=
